<?xml version="1.0" encoding="UTF-8"?>
<svg xmlns="http://www.w3.org/2000/svg" xmlns:xlink="http://www.w3.org/1999/xlink" viewBox="0 0 91.04 91.8">
  <defs>
    <style>
      .cls-1, .cls-2, .cls-3, .cls-4, .cls-5 {
        fill: none;
      }

      .cls-2 {
        stroke: #d8def1;
      }

      .cls-2, .cls-3, .cls-4, .cls-5 {
        stroke-linecap: round;
        stroke-linejoin: round;
      }

      .cls-6 {
        fill: #353535;
        mix-blend-mode: multiply;
        opacity: .09;
      }

      .cls-7 {
        fill: #231f20;
      }

      .cls-3 {
        stroke: #212b43;
      }

      .cls-8 {
        isolation: isolate;
      }

      .cls-9 {
        clip-path: url(#clippath-1);
      }

      .cls-10 {
        clip-path: url(#clippath-3);
      }

      .cls-11 {
        clip-path: url(#clippath-4);
      }

      .cls-12 {
        clip-path: url(#clippath-2);
      }

      .cls-4 {
        stroke: #787f93;
      }

      .cls-5 {
        stroke: #e5e6ec;
      }

      .cls-13 {
        fill: #fff;
      }

      .cls-14 {
        fill: #e7eced;
      }

      .cls-15 {
        fill: #cfd8da;
      }

      .cls-16 {
        clip-path: url(#clippath);
      }
    </style>
    <clipPath id="clippath">
      <path class="cls-1" d="M21.96,33.94c-.6-.02-1.2-.02-1.79,0-.27,0-.55.02-.8.12-.38.15-.66.47-.93.77-1.07,1.23-2.13,2.45-3.2,3.68-5.16-3.4-9.97-6.97-14.73-11.04,2.8-3.5,5.6-6.99,8.4-10.49,1.21-1.5,2.41-3.01,3.62-4.51.74-.92,1.48-1.84,2.31-2.68.61-.61,1.26-1.17,1.94-1.69,4.54,6.06,4.99,14.26,5.13,21.88.02,1.32.04,2.63.06,3.95Z"/>
    </clipPath>
    <clipPath id="clippath-1">
      <path class="cls-1" d="M69.08,33.94c.6-.02,1.2-.02,1.79,0,.27,0,.55.02.8.12.38.15.66.47.93.77,1.07,1.23,2.13,2.45,3.2,3.68,5.16-3.4,9.97-6.97,14.73-11.04-2.8-3.5-5.6-6.99-8.4-10.49-1.21-1.5-2.41-3.01-3.62-4.51-.74-.92-1.48-1.84-2.31-2.68-.61-.61-1.26-1.17-1.94-1.69-4.54,6.06-4.99,14.26-5.13,21.88-.02,1.32-.04,2.63-.06,3.95Z"/>
    </clipPath>
    <clipPath id="clippath-2">
      <path class="cls-1" d="M70.54,90.27c-4.24.56-8.52.75-12.8.94-2.54.11-9.04.09-12.22.09s-9.68.02-12.22-.09c-4.28-.19-8.56-.38-12.8-.94,1.2-18.74,1.69-37.54,1.47-56.33-.01-1.32-.03-2.63-.06-3.95-.13-7.62-.59-15.81-5.13-21.88,3.18-2.41,7.06-3.88,10.85-5.27.83-.31,3.44-1.04,3.88-1.12,1.41-.25,2.65-1.09,3.81-1.22-.45,2.65.75,5.43,2.73,7.25.99.91,2.19,1.59,3.47,2.05,1.28.46,2.66.69,4,.69,2.69,0,5.49-.92,7.48-2.73,1.98-1.82,3.18-4.6,2.73-7.25,1.16.13,2.4.97,3.81,1.22.44.08,3.05.81,3.88,1.12,3.78,1.4,7.67,2.86,10.85,5.27-4.54,6.06-4.99,14.26-5.13,21.88-.02,1.32-.04,2.63-.06,3.95-.23,18.79.27,37.59,1.47,56.33Z"/>
    </clipPath>
    <clipPath id="clippath-3">
      <path class="cls-1" d="M70.54,90.27c-4.24.56-8.52.75-12.8.94-2.54.11-9.04.09-12.22.09s-9.68.02-12.22-.09c-4.28-.19-8.56-.38-12.8-.94,1.2-18.74,1.69-37.54,1.47-56.33-.01-1.32-.03-2.63-.06-3.95-.13-7.62-.59-15.81-5.13-21.88,3.18-2.41,7.06-3.88,10.85-5.27.83-.31,3.44-1.04,3.88-1.12,1.41-.25,2.65-1.09,3.81-1.22-.45,2.65.75,5.43,2.73,7.25.99.91,2.19,1.59,3.47,2.05,1.28.46,2.66.69,4,.69,2.69,0,5.49-.92,7.48-2.73,1.98-1.82,3.18-4.6,2.73-7.25,1.16.13,2.4.97,3.81,1.22.44.08,3.05.81,3.88,1.12,3.78,1.4,7.67,2.86,10.85,5.27-4.54,6.06-4.99,14.26-5.13,21.88-.02,1.32-.04,2.63-.06,3.95-.23,18.79.27,37.59,1.47,56.33Z"/>
    </clipPath>
    <clipPath id="clippath-4">
      <path class="cls-1" d="M52.99,7.75c-1.99,1.82-4.79,2.73-7.48,2.73-1.34,0-2.72-.23-4-.69-1.28-.46-2.48-1.14-3.47-2.05-1.98-1.82-3.18-4.6-2.73-7.25,3.09,1.37,7.06,1.91,10.21,1.91s7.12-.54,10.21-1.91c.45,2.65-.75,5.43-2.73,7.25Z"/>
    </clipPath>
  </defs>
  <g class="cls-8">
    <g id="Layer_2" data-name="Layer 2">
      <g id="OBJECTS">
        <g>
          <g>
            <path class="cls-13" d="M21.96,33.94c-.6-.02-1.2-.02-1.79,0-.27,0-.55.02-.8.12-.38.15-.66.47-.93.77-1.07,1.23-2.13,2.45-3.2,3.68-5.16-3.4-9.97-6.97-14.73-11.04,2.8-3.5,5.6-6.99,8.4-10.49,1.21-1.5,2.41-3.01,3.62-4.51.74-.92,1.48-1.84,2.31-2.68.61-.61,1.26-1.17,1.94-1.69,4.54,6.06,4.99,14.26,5.13,21.88.02,1.32.04,2.63.06,3.95Z"/>
            <path class="cls-2" d="M16.28,35.07c.9-1.28,2.38-2.14,3.94-2.3"/>
            <g class="cls-16">
              <path class="cls-4" d="M1.23,26.14c5.16,3.98,10.65,7.62,16.41,10.88"/>
              <path class="cls-4" d="M2.19,25.02c5.34,3.83,10.69,7.68,16.53,10.88"/>
            </g>
            <path class="cls-6" d="M11.35,35.89c1.27.89,2.57,1.77,3.88,2.64,1.07-1.23,2.13-2.45,3.2-3.68.27-.31.55-.63.93-.77.25-.1.53-.12.8-.12.6-.02,1.19-.02,1.79,0-.01-1.32-.03-2.63-.06-3.95,0-.46-.02-.91-.03-1.37-5.79.85-9.1,4.98-10.52,7.27Z"/>
            <path class="cls-3" d="M21.96,33.94c-.6-.02-1.2-.02-1.79,0-.27,0-.55.02-.8.12-.38.15-.66.47-.93.77-1.07,1.23-2.13,2.45-3.2,3.68-5.16-3.4-9.97-6.97-14.73-11.04,2.8-3.5,5.6-6.99,8.4-10.49,1.21-1.5,2.41-3.01,3.62-4.51.74-.92,1.48-1.84,2.31-2.68.61-.61,1.26-1.17,1.94-1.69,4.54,6.06,4.99,14.26,5.13,21.88.02,1.32.04,2.63.06,3.95Z"/>
          </g>
          <g>
            <path class="cls-13" d="M69.08,33.94c.6-.02,1.2-.02,1.79,0,.27,0,.55.02.8.12.38.15.66.47.93.77,1.07,1.23,2.13,2.45,3.2,3.68,5.16-3.4,9.97-6.97,14.73-11.04-2.8-3.5-5.6-6.99-8.4-10.49-1.21-1.5-2.41-3.01-3.62-4.51-.74-.92-1.48-1.84-2.31-2.68-.61-.61-1.26-1.17-1.94-1.69-4.54,6.06-4.99,14.26-5.13,21.88-.02,1.32-.04,2.63-.06,3.95Z"/>
            <path class="cls-2" d="M74.76,35.07c-.9-1.28-2.38-2.14-3.94-2.3"/>
            <g class="cls-9">
              <path class="cls-4" d="M89.81,26.14c-5.16,3.98-10.65,7.62-16.41,10.88"/>
              <path class="cls-4" d="M88.85,25.02c-5.34,3.83-10.69,7.68-16.53,10.88"/>
            </g>
            <path class="cls-6" d="M73.74,29.31c-1.13-.88-2.84-1.57-4.54-2.09-.03.93-.05,1.85-.07,2.77-.02,1.32-.04,2.63-.06,3.95.6-.02,1.2-.02,1.79,0,.27,0,.55.02.8.12.38.15.66.47.93.77,1.07,1.23,2.13,2.45,3.2,3.68,1.43-.94,2.83-1.9,4.21-2.87-1.33-1.55-4.05-4.62-6.27-6.34Z"/>
            <path class="cls-3" d="M69.08,33.94c.6-.02,1.2-.02,1.79,0,.27,0,.55.02.8.12.38.15.66.47.93.77,1.07,1.23,2.13,2.45,3.2,3.68,5.16-3.4,9.97-6.97,14.73-11.04-2.8-3.5-5.6-6.99-8.4-10.49-1.21-1.5-2.41-3.01-3.62-4.51-.74-.92-1.48-1.84-2.31-2.68-.61-.61-1.26-1.17-1.94-1.69-4.54,6.06-4.99,14.26-5.13,21.88-.02,1.32-.04,2.63-.06,3.95Z"/>
          </g>
          <g>
            <path class="cls-13" d="M70.54,90.27c-4.24.56-8.52.75-12.8.94-2.54.11-9.04.09-12.22.09s-9.68.02-12.22-.09c-4.28-.19-8.56-.38-12.8-.94,1.2-18.74,1.69-37.54,1.47-56.33-.01-1.32-.03-2.63-.06-3.95-.13-7.62-.59-15.81-5.13-21.88,3.18-2.41,7.06-3.88,10.85-5.27.83-.31,3.44-1.04,3.88-1.12,1.41-.25,2.65-1.09,3.81-1.22-.45,2.65.75,5.43,2.73,7.25.99.91,2.19,1.59,3.47,2.05,1.28.46,2.66.69,4,.69,2.69,0,5.49-.92,7.48-2.73,1.98-1.82,3.18-4.6,2.73-7.25,1.16.13,2.4.97,3.81,1.22.44.08,3.05.81,3.88,1.12,3.78,1.4,7.67,2.86,10.85,5.27-4.54,6.06-4.99,14.26-5.13,21.88-.02,1.32-.04,2.63-.06,3.95-.23,18.79.27,37.59,1.47,56.33Z"/>
            <g class="cls-12">
              <g>
                <path class="cls-5" d="M31.32,11.53c1.57-.65,3.2-1.18,4.85-1.57"/>
                <path class="cls-5" d="M21.49,31.1c1.7-1.59,3.81-2.74,6.07-3.31"/>
                <path class="cls-5" d="M21.41,32.34c1.97-.58,4.04-.83,6.1-.76"/>
                <path class="cls-5" d="M23.02,62.72c2.7.03,5.4-.25,8.03-.83"/>
                <path class="cls-5" d="M22.62,57.69c1.56-.1,3.11-.31,4.63-.61"/>
                <path class="cls-5" d="M59.72,11.53c-1.57-.65-3.2-1.18-4.85-1.57"/>
                <path class="cls-5" d="M69.55,31.1c-1.7-1.59-3.81-2.74-6.07-3.31"/>
                <path class="cls-5" d="M69.62,32.34c-1.97-.58-4.04-.83-6.1-.76"/>
                <path class="cls-5" d="M68.02,62.72c-2.7.03-5.4-.25-8.03-.83"/>
                <path class="cls-5" d="M68.42,57.69c-1.56-.1-3.11-.31-4.63-.61"/>
              </g>
            </g>
            <g class="cls-10">
              <g>
                <path class="cls-4" d="M68.17,87.63c-1.13-20.9-1.95-38.91-.99-59.88.3-6.65.89-13.64,4.64-19.14-1.5-1.22-3.13-1.96-3.96-2.31-.73-.3-1.47-.56-2.22-.81-2.5-.84-5-1.68-7.57-2.41-.79,2.69-2.44,5.12-4.65,6.84-2.21,1.72-4.98,2.68-7.89,2.68s-5.68-.96-7.89-2.68c-2.21-1.72-3.86-4.15-4.65-6.84-2.57.72-5.07,1.57-7.57,2.41-.75.25-1.49.5-2.22.81-.84.35-2.46,1.09-3.96,2.31,3.75,5.49,4.34,12.49,4.64,19.14.95,20.96.14,38.98-.99,59.88"/>
                <path class="cls-4" d="M20.14,87.26c8.39,1.3,16.89,1.31,25.38,1.31s16.98,0,25.38-1.31"/>
                <path class="cls-4" d="M71.01,88.66c-8.4.8-17.52,1.4-25.49,1.4h0c-7.97,0-17.1-.6-25.49-1.4"/>
              </g>
            </g>
            <path class="cls-6" d="M22.73,90.53c1.46-35.05-.07-62.01-.07-62.01-.27.02-.53.06-.79.09.01.46.02.92.03,1.37.02,1.32.04,2.63.06,3.95.23,18.79-.27,37.59-1.47,56.33.74.1,1.49.18,2.24.26Z"/>
            <path class="cls-6" d="M69.07,33.94c.01-1.32.03-2.63.06-3.95.02-.92.04-1.84.07-2.77-2.91-.89-5.81-1.3-5.81-1.3-2.82,27.11-.24,56.01.7,64.96,2.15-.14,4.31-.33,6.45-.61-1.19-18.74-1.69-37.54-1.47-56.33Z"/>
            <path class="cls-3" d="M70.54,90.27c-4.24.56-8.52.75-12.8.94-2.54.11-9.04.09-12.22.09s-9.68.02-12.22-.09c-4.28-.19-8.56-.38-12.8-.94,1.2-18.74,1.69-37.54,1.47-56.33-.01-1.32-.03-2.63-.06-3.95-.13-7.62-.59-15.81-5.13-21.88,3.18-2.41,7.06-3.88,10.85-5.27.83-.31,3.44-1.04,3.88-1.12,1.41-.25,2.65-1.09,3.81-1.22-.45,2.65.75,5.43,2.73,7.25.99.91,2.19,1.59,3.47,2.05,1.28.46,2.66.69,4,.69,2.69,0,5.49-.92,7.48-2.73,1.98-1.82,3.18-4.6,2.73-7.25,1.16.13,2.4.97,3.81,1.22.44.08,3.05.81,3.88,1.12,3.78,1.4,7.67,2.86,10.85,5.27-4.54,6.06-4.99,14.26-5.13,21.88-.02,1.32-.04,2.63-.06,3.95-.23,18.79.27,37.59,1.47,56.33Z"/>
          </g>
          <g>
            <path class="cls-15" d="M52.99,7.75c-1.99,1.82-4.79,2.73-7.48,2.73-1.34,0-2.72-.23-4-.69-1.28-.46-2.48-1.14-3.47-2.05-1.98-1.82-3.18-4.6-2.73-7.25,3.09,1.37,7.06,1.91,10.21,1.91s7.12-.54,10.21-1.91c.45,2.65-.75,5.43-2.73,7.25Z"/>
            <g class="cls-11">
              <path class="cls-4" d="M56.18,2.14c-3.28,1.57-7.07,2.19-10.66,2.19s-7.38-.61-10.66-2.19"/>
            </g>
            <path class="cls-3" d="M52.99,7.75c-1.99,1.82-4.79,2.73-7.48,2.73-1.34,0-2.72-.23-4-.69-1.28-.46-2.48-1.14-3.47-2.05-1.98-1.82-3.18-4.6-2.73-7.25,3.09,1.37,7.06,1.91,10.21,1.91s7.12-.54,10.21-1.91c.45,2.65-.75,5.43-2.73,7.25Z"/>
            <rect class="cls-14" x="42.18" y="5.78" width="6.68" height="1.28"/>
            <rect class="cls-14" x="43.56" y="7.47" width="3.92" height="1.28"/>
          </g>
        </g>
      </g>
      <g id="LOGO">
        <path class="cls-7" d="M63.14,18.65c.07.05.13.12.17.2.19.33.08.75-.25.95l-2.2,1.27c-.33.19-.75.08-.95-.25h0c-.19-.33-.08-.75.25-.95l2.2-1.27c.25-.14.54-.11.76.04-.36-.26-.8-.42-1.27-.42h-.46c-1.2,0-2.19.97-2.19,2.17v2.8c-.02.68.29,1.29.78,1.69-.03-.03-.05-.07-.07-.1-.19-.33-.08-.75.25-.95l2.2-1.27c.33-.19.75-.08.95.25.19.33.08.75-.25.95l-2.2,1.27c-.19.11-.4.11-.59.05.32.19.69.3,1.09.3h.46c1.2,0,2.19-.97,2.19-2.17v-2.8c.02-.72-.33-1.36-.87-1.76h0ZM63.67,21.32l-3.44,1.99c-.33.19-.75.08-.95-.25-.19-.33-.08-.75.25-.95l3.44-1.99c.33-.19.75-.08.95.25h0c.19.33.08.75-.25.95Z"/>
        <path class="cls-7" d="M52.89,21.77c0-.57.47-1.04,1.04-1.04h3.82c.57,0,1.04.47,1.04,1.04h0c0,.57-.47,1.04-1.04,1.04h-3.82c-.57,0-1.04-.47-1.04-1.04"/>
        <path class="cls-7" d="M52.76,19.19c0-.57.47-1.04,1.04-1.04h4.07c.57,0,1.04.47,1.04,1.04h0c0,.57-.47,1.04-1.04,1.04h-4.07c-.57,0-1.04-.47-1.04-1.04"/>
        <path class="cls-7" d="M53.02,24.35c0-.57.47-1.04,1.04-1.04h3.82c.57,0,1.04.47,1.04,1.04h0c0,.57-.47,1.04-1.04,1.04h-3.82c-.57,0-1.04-.47-1.04-1.04"/>
      </g>
    </g>
  </g>
</svg>