<?xml version="1.0" encoding="UTF-8"?>
<svg xmlns="http://www.w3.org/2000/svg" xmlns:xlink="http://www.w3.org/1999/xlink" viewBox="0 0 91.03 91.81">
  <defs>
    <style>
      .cls-1, .cls-2, .cls-3, .cls-4 {
        fill: none;
      }

      .cls-5 {
        fill: #353535;
        mix-blend-mode: multiply;
        opacity: .09;
      }

      .cls-6 {
        fill: #231f20;
      }

      .cls-2 {
        stroke: #212b43;
      }

      .cls-2, .cls-3, .cls-4 {
        stroke-linecap: round;
        stroke-linejoin: round;
      }

      .cls-7 {
        isolation: isolate;
      }

      .cls-8 {
        clip-path: url(#clippath-1);
      }

      .cls-9 {
        clip-path: url(#clippath-3);
      }

      .cls-10 {
        clip-path: url(#clippath-5);
      }

      .cls-3 {
        stroke: #787f93;
      }

      .cls-4 {
        stroke: #e5e6ec;
      }

      .cls-11 {
        fill: #fff;
      }

      .cls-12 {
        clip-path: url(#clippath);
      }
    </style>
    <clipPath id="clippath">
      <path class="cls-1" d="M21.96,33.94c-.6-.02-1.2-.02-1.79,0-.27,0-.55.02-.8.12-.38.15-.66.47-.93.77l-3.2,3.69c-5.16-3.4-9.97-6.97-14.73-11.04,2.8-3.5,5.6-6.99,8.4-10.49,1.21-1.5,2.41-3.01,3.62-4.51.74-.92,1.48-1.84,2.31-2.68.61-.61,1.26-1.18,1.94-1.69,4.54,6.06,4.99,14.26,5.13,21.88.02,1.32.04,2.63.06,3.95Z"/>
    </clipPath>
    <clipPath id="clippath-1">
      <path class="cls-1" d="M21.96,33.94c-.6-.02-1.2-.02-1.79,0-.27,0-.55.02-.8.12-.38.15-.66.47-.93.77l-3.2,3.69c-5.16-3.4-9.97-6.97-14.73-11.04,2.8-3.5,5.6-6.99,8.4-10.49,1.21-1.5,2.41-3.01,3.62-4.51.74-.92,1.48-1.84,2.31-2.68.61-.61,1.26-1.18,1.94-1.69,4.54,6.06,4.99,14.26,5.13,21.88.02,1.32.04,2.63.06,3.95Z"/>
    </clipPath>
    <clipPath id="clippath-3">
      <path class="cls-1" d="M90.53,27.49c-4.76,4.07-9.58,7.64-14.73,11.04-1.07-1.23-2.14-2.46-3.2-3.69-.27-.31-.55-.62-.93-.77-.25-.1-.53-.12-.8-.12-.6-.02-1.2-.02-1.8,0,.01-1.32.03-2.63.06-3.95.13-7.62.59-15.81,5.13-21.88.68.52,1.33,1.08,1.94,1.69.83.84,1.57,1.76,2.31,2.68,1.21,1.5,2.41,3.01,3.62,4.51,2.8,3.5,5.61,6.99,8.4,10.49Z"/>
    </clipPath>
    <clipPath id="clippath-5">
      <path class="cls-1" d="M70.54,90.27c-4.24.56-8.53.75-12.8.94-2.54.12-9.04.09-12.22.09s-9.68.02-12.22-.09c-4.28-.19-8.56-.38-12.8-.94,1.2-18.74,1.69-37.54,1.47-56.33-.01-1.32-.03-2.63-.06-3.95-.13-7.62-.59-15.81-5.13-21.88,3.18-2.41,7.07-3.88,10.85-5.27.83-.31,3.44-1.04,3.88-1.12,1.41-.25,2.65-1.09,3.81-1.23,3.09,1.37,7.06,1.91,10.21,1.91s7.12-.54,10.21-1.91c1.16.13,2.4.97,3.81,1.23.44.08,3.05.81,3.88,1.12,3.78,1.4,7.67,2.86,10.85,5.27-4.54,6.06-5,14.26-5.13,21.88-.02,1.32-.04,2.63-.06,3.95-.23,18.79.27,37.59,1.47,56.33Z"/>
    </clipPath>
  </defs>
  <g class="cls-7">
    <g id="Layer_2" data-name="Layer 2">
      <g id="OBJECTS">
        <g>
          <g>
            <path class="cls-11" d="M21.96,33.94c-.6-.02-1.2-.02-1.79,0-.27,0-.55.02-.8.12-.38.15-.66.47-.93.77l-3.2,3.69c-5.16-3.4-9.97-6.97-14.73-11.04,2.8-3.5,5.6-6.99,8.4-10.49,1.21-1.5,2.41-3.01,3.62-4.51.74-.92,1.48-1.84,2.31-2.68.61-.61,1.26-1.18,1.94-1.69,4.54,6.06,4.99,14.26,5.13,21.88.02,1.32.04,2.63.06,3.95Z"/>
            <g class="cls-12">
              <path class="cls-3" d="M1.23,26.14c5.16,3.98,10.65,7.62,16.41,10.88"/>
              <path class="cls-3" d="M2.19,25.02c5.34,3.83,10.69,7.68,16.53,10.88"/>
            </g>
            <g class="cls-8">
              <g>
                <path class="cls-4" d="M19.55,25.93c.85,2.73,1.37,5.56,1.55,8.41"/>
                <path class="cls-4" d="M20.1,34.44c-.67-1.99-1.67-3.86-2.96-5.52"/>
              </g>
            </g>
            <path class="cls-5" d="M11.35,35.89c1.27.89,2.57,1.77,3.88,2.64,1.07-1.23,2.13-2.45,3.2-3.68.27-.31.55-.63.93-.77.25-.1.53-.12.8-.12.6-.02,1.19-.02,1.79,0-.01-1.32-.03-2.63-.06-3.95,0-.46-.02-.91-.03-1.37-5.79.85-9.1,4.98-10.52,7.27Z"/>
            <path class="cls-2" d="M21.96,33.94c-.6-.02-1.2-.02-1.79,0-.27,0-.55.02-.8.12-.38.15-.66.47-.93.77l-3.2,3.69c-5.16-3.4-9.97-6.97-14.73-11.04,2.8-3.5,5.6-6.99,8.4-10.49,1.21-1.5,2.41-3.01,3.62-4.51.74-.92,1.48-1.84,2.31-2.68.61-.61,1.26-1.18,1.94-1.69,4.54,6.06,4.99,14.26,5.13,21.88.02,1.32.04,2.63.06,3.95Z"/>
          </g>
          <g>
            <path class="cls-11" d="M90.53,27.49c-4.76,4.07-9.58,7.64-14.73,11.04-1.07-1.23-2.14-2.46-3.2-3.69-.27-.31-.55-.62-.93-.77-.25-.1-.53-.12-.8-.12-.6-.02-1.2-.02-1.8,0,.01-1.32.03-2.63.06-3.95.13-7.62.59-15.81,5.13-21.88.68.52,1.33,1.08,1.94,1.69.83.84,1.57,1.76,2.31,2.68,1.21,1.5,2.41,3.01,3.62,4.51,2.8,3.5,5.61,6.99,8.4,10.49Z"/>
            <g class="cls-9">
              <path class="cls-4" d="M71.48,25.93c-.85,2.73-1.37,5.56-1.55,8.41"/>
              <path class="cls-4" d="M70.94,34.44c.67-1.99,1.67-3.86,2.96-5.52"/>
            </g>
            <path class="cls-5" d="M73.74,29.32c-1.13-.88-2.84-1.57-4.54-2.09-.03.93-.05,1.85-.07,2.77-.02,1.32-.04,2.63-.06,3.95.6-.02,1.2-.02,1.79,0,.27,0,.55.02.8.12.38.15.66.47.93.77,1.07,1.23,2.13,2.45,3.2,3.68,1.43-.94,2.83-1.9,4.21-2.87-1.33-1.55-4.05-4.62-6.27-6.34Z"/>
            <path class="cls-2" d="M90.53,27.49c-4.76,4.07-9.58,7.64-14.73,11.04-1.07-1.23-2.14-2.46-3.2-3.69-.27-.31-.55-.62-.93-.77-.25-.1-.53-.12-.8-.12-.6-.02-1.2-.02-1.8,0,.01-1.32.03-2.63.06-3.95.13-7.62.59-15.81,5.13-21.88.68.52,1.33,1.08,1.94,1.69.83.84,1.57,1.76,2.31,2.68,1.21,1.5,2.41,3.01,3.62,4.51,2.8,3.5,5.61,6.99,8.4,10.49Z"/>
          </g>
          <g>
            <path class="cls-11" d="M70.54,90.27c-4.24.56-8.53.75-12.8.94-2.54.12-9.04.09-12.22.09s-9.68.02-12.22-.09c-4.28-.19-8.56-.38-12.8-.94,1.2-18.74,1.69-37.54,1.47-56.33-.01-1.32-.03-2.63-.06-3.95-.13-7.62-.59-15.81-5.13-21.88,3.18-2.41,7.07-3.88,10.85-5.27.83-.31,3.44-1.04,3.88-1.12,1.41-.25,2.65-1.09,3.81-1.23,3.09,1.37,7.06,1.91,10.21,1.91s7.12-.54,10.21-1.91c1.16.13,2.4.97,3.81,1.23.44.08,3.05.81,3.88,1.12,3.78,1.4,7.67,2.86,10.85,5.27-4.54,6.06-5,14.26-5.13,21.88-.02,1.32-.04,2.63-.06,3.95-.23,18.79.27,37.59,1.47,56.33Z"/>
            <g class="cls-10">
              <g>
                <path class="cls-4" d="M58.57,67.61c4.08-.17,8.19-.1,12.24-.57"/>
                <path class="cls-4" d="M63.87,2.35c-.96,1.96-1.73,4.01-2.32,6.11"/>
                <path class="cls-4" d="M32.47,67.61c-4.08-.17-8.19-.1-12.24-.57"/>
                <path class="cls-4" d="M27.16,2.35c.96,1.96,1.73,4.01,2.32,6.11"/>
              </g>
            </g>
            <path class="cls-5" d="M22.73,90.53c1.46-35.05-.07-62.01-.07-62.01-.27.02-.53.06-.79.09.01.46.02.92.03,1.37.02,1.32.04,2.63.06,3.95.23,18.79-.27,37.59-1.47,56.33.74.1,1.49.18,2.24.26Z"/>
            <path class="cls-5" d="M69.07,33.95c.01-1.32.03-2.63.06-3.95.02-.92.04-1.84.07-2.77-2.91-.89-5.81-1.3-5.81-1.3-2.82,27.11-.24,56.01.7,64.96,2.15-.14,4.31-.33,6.45-.61-1.19-18.74-1.69-37.54-1.47-56.33Z"/>
            <path class="cls-2" d="M70.54,90.27c-4.24.56-8.53.75-12.8.94-2.54.12-9.04.09-12.22.09s-9.68.02-12.22-.09c-4.28-.19-8.56-.38-12.8-.94,1.2-18.74,1.69-37.54,1.47-56.33-.01-1.32-.03-2.63-.06-3.95-.13-7.62-.59-15.81-5.13-21.88,3.18-2.41,7.07-3.88,10.85-5.27.83-.31,3.44-1.04,3.88-1.12,1.41-.25,2.65-1.09,3.81-1.23,3.09,1.37,7.06,1.91,10.21,1.91s7.12-.54,10.21-1.91c1.16.13,2.4.97,3.81,1.23.44.08,3.05.81,3.88,1.12,3.78,1.4,7.67,2.86,10.85,5.27-4.54,6.06-5,14.26-5.13,21.88-.02,1.32-.04,2.63-.06,3.95-.23,18.79.27,37.59,1.47,56.33Z"/>
          </g>
        </g>
      </g>
      <g id="LOGO">
        <path class="cls-6" d="M56.92,16.04c.16.13.31.29.42.48.46.79.18,1.81-.61,2.27l-5.29,3.05c-.79.46-1.81.18-2.27-.61h0c-.46-.79-.18-1.81.61-2.27l5.29-3.05c.59-.34,1.3-.28,1.82.1-.86-.63-1.91-1.01-3.05-1.02h-1.09c-2.88-.02-5.25,2.33-5.27,5.2l-.03,6.74c0,1.63.74,3.1,1.91,4.07-.07-.08-.12-.16-.18-.25-.46-.79-.18-1.81.61-2.27l5.29-3.05c.79-.46,1.81-.18,2.27.61.46.79.18,1.81-.61,2.27l-5.29,3.05c-.45.26-.96.28-1.42.11.77.45,1.66.72,2.61.73h1.09c2.88.02,5.25-2.33,5.27-5.2l.03-6.74c0-1.72-.83-3.26-2.12-4.23h0ZM58.2,22.45l-8.26,4.77c-.79.46-1.81.18-2.27-.61-.46-.79-.18-1.81.61-2.27l8.26-4.77c.79-.46,1.81-.18,2.27.61h0c.46.79.18,1.81-.61,2.27Z"/>
        <path class="cls-6" d="M32.3,23.53c0-1.38,1.12-2.5,2.5-2.5h9.17c1.38,0,2.5,1.12,2.5,2.5h0c0,1.38-1.12,2.5-2.5,2.5h-9.17c-1.38,0-2.5-1.12-2.5-2.5"/>
        <path class="cls-6" d="M32,17.33c0-1.38,1.12-2.5,2.5-2.5h9.78c1.38,0,2.5,1.12,2.5,2.5h0c0,1.38-1.12,2.5-2.5,2.5h-9.78c-1.38,0-2.5-1.12-2.5-2.5"/>
        <path class="cls-6" d="M32.61,29.72c0-1.38,1.12-2.5,2.5-2.5h9.17c1.38,0,2.5,1.12,2.5,2.5h0c0,1.38-1.12,2.5-2.5,2.5h-9.17c-1.38,0-2.5-1.12-2.5-2.5"/>
      </g>
    </g>
  </g>
</svg>