<?xml version="1.0" encoding="UTF-8"?>
<svg id="Layer_2" data-name="Layer 2" xmlns="http://www.w3.org/2000/svg" viewBox="0 0 19.01 26.08">
  <defs>
    <style>
      .cls-1 {
        fill:rgb(64, 129, 251);
      }
    </style>
  </defs>
  <g id="Layer_1-2" data-name="Layer 1">
    <g>
      <g>
        <path class="cls-1" d="M1.36,14.19c-1.3.75-1.75,2.42-1,3.72.75,1.3,2.42,1.75,3.72,1l3.41-1.97v-6.3l-6.14,3.54Z"/>
        <path class="cls-1" d="M18.64,7.36c-.75-1.3-2.42-1.75-3.72-1l-3.72,2.15v.42c0,.22-.18.4-.4.4h-1.02l-.07.04h1.58c.3,0,.55.25.55.55v4.51l5.8-3.35c1.3-.75,1.75-2.42,1-3.72Z"/>
        <path class="cls-1" d="M8.15,8.43c0-.22.18-.4.4-.4h1.59l5.1-2.95c1.3-.75,1.75-2.42,1-3.72-.75-1.3-2.42-1.75-3.72-1L3.84,5.37c-1.3.75-1.75,2.42-1,3.72h0c.75,1.3,2.42,1.75,3.72,1l1.65-.95c-.04-.06-.07-.13-.07-.22v-.49ZM9.02,5.77c0-.22.18-.4.4-.4h.17c-.1,0-.17-.08-.17-.17v-2.68c0-.1.08-.17.17-.17h.14c.1,0,.17.08.17.17v2.68c0,.1-.08.17-.17.17h.17c.22,0,.4.18.4.4v1.64c0,.22-.18.4-.4.4h-.49c-.22,0-.4-.18-.4-.4v-1.64Z"/>
        <path class="cls-1" d="M11.29,19.11h1.4c.3,0,.54.24.54.54v1.37c0,.3-.24.54-.54.54h-6.05c-.3,0-.54-.24-.54-.54v-1.33l-2.27,1.31c-1.3.75-1.75,2.42-1,3.72.75,1.3,2.42,1.75,3.72,1l8.67-5.01c1.3-.75,1.75-2.42,1-3.72h0c-.75-1.3-2.42-1.75-3.72-1l-.67.39v2.19c0,.3-.25.55-.55.55Z"/>
      </g>
      <rect class="cls-1" x="5.48" y="13.53" width="5.83" height=".49" rx=".24" ry=".24" transform="translate(-5.39 22.17) rotate(-90)"/>
    </g>
  </g>
</svg>