<?xml version="1.0" encoding="UTF-8"?>
<svg id="Layer_2" data-name="Layer 2" xmlns="http://www.w3.org/2000/svg" viewBox="0 0 41.14 26.97">
  <defs>
    <style>
      .cls-1 {
        fill: #fff;
      }
    </style>
  </defs>
  <g id="Layer_1-2" data-name="Layer 1">
    <g>
      <g>
        <rect class="cls-1" x="22.19" y="9.93" width="19.82" height="5.86" rx="2.76" ry="2.76" transform="translate(-2.13 17.78) rotate(-30)"/>
        <rect class="cls-1" x="24.44" y="2.23" width="14.53" height="5.86" rx="2.76" ry="2.76" transform="translate(1.67 16.54) rotate(-30)"/>
        <rect class="cls-1" x="25.36" y="18.49" width="14.53" height="5.86" rx="2.76" ry="2.76" transform="translate(-6.34 19.18) rotate(-30)"/>
      </g>
      <path class="cls-1" d="M.47,13.72c0-2.1,1.71-3.81,3.81-3.81h13.99c2.1,0,3.81,1.71,3.81,3.81h0c0,2.1-1.71,3.81-3.81,3.81H4.28c-2.1,0-3.81-1.71-3.81-3.81"/>
      <path class="cls-1" d="M0,4.27C0,2.16,1.71.46,3.81.46h14.93c2.1,0,3.81,1.71,3.81,3.81h0c0,2.1-1.71,3.81-3.81,3.81H3.81c-2.1,0-3.81-1.71-3.81-3.81"/>
      <path class="cls-1" d="M.94,23.16c0-2.1,1.71-3.81,3.81-3.81h13.99c2.1,0,3.81,1.71,3.81,3.81h0c0,2.1-1.71,3.81-3.81,3.81H4.75c-2.1,0-3.81-1.71-3.81-3.81"/>
    </g>
  </g>
</svg>