<?xml version="1.0" encoding="UTF-8"?>
<svg id="Layer_2" data-name="Layer 2" xmlns="http://www.w3.org/2000/svg" viewBox="0 0 41.27 26.52">
  <defs>
    <style>
      .cls-1 {
        fill: #fff;
      }
    </style>
  </defs>
  <g id="Layer_1-2" data-name="Layer 1">
    <g>
      <path class="cls-1" d="M38.04,1.84c.25.2.47.44.64.74.7,1.21.28,2.76-.93,3.47l-8.07,4.66c-1.21.7-2.76.28-3.47-.93h0c-.7-1.21-.28-2.76.93-3.47l8.07-4.66c.9-.52,1.99-.42,2.77.16-1.31-.96-2.92-1.54-4.66-1.55h-1.67c-4.4-.03-8.01,3.55-8.04,7.94l-.05,10.28c-.01,2.49,1.13,4.73,2.92,6.21-.1-.12-.19-.24-.27-.38-.7-1.21-.28-2.76.93-3.47l8.07-4.66c1.21-.7,2.76-.28,3.47.93.7,1.21.28,2.76-.93,3.47l-8.07,4.66c-.68.4-1.47.42-2.16.17,1.18.69,2.54,1.1,3.99,1.11h1.67c4.4.03,8.01-3.55,8.04-7.94l.05-10.28c.01-2.63-1.27-4.98-3.24-6.45ZM39.99,11.62l-12.61,7.28c-1.21.7-2.76.28-3.47-.93-.7-1.21-.28-2.76.93-3.47l12.61-7.28c1.21-.7,2.76-.28,3.47.93h0c.7,1.21.28,2.76-.93,3.47Z"/>
      <path class="cls-1" d="M.47,13.26c0-2.1,1.71-3.81,3.81-3.81h13.99c2.1,0,3.81,1.71,3.81,3.81h0c0,2.1-1.71,3.81-3.81,3.81H4.28c-2.1,0-3.81-1.71-3.81-3.81"/>
      <path class="cls-1" d="M0,3.81C0,1.71,1.71,0,3.81,0h14.93c2.1,0,3.81,1.71,3.81,3.81h0c0,2.1-1.71,3.81-3.81,3.81H3.81C1.71,7.62,0,5.91,0,3.81"/>
      <path class="cls-1" d="M.94,22.71c0-2.1,1.71-3.81,3.81-3.81h13.99c2.1,0,3.81,1.71,3.81,3.81h0c0,2.1-1.71,3.81-3.81,3.81H4.75c-2.1,0-3.81-1.71-3.81-3.81"/>
    </g>
  </g>
</svg>